<?xml version="1.0" standalone="no"?>
<!DOCTYPE svg PUBLIC "-//W3C//DTD SVG 20010904//EN"
 "http://www.w3.org/TR/2001/REC-SVG-20010904/DTD/svg10.dtd">
<svg version="1.0" xmlns="http://www.w3.org/2000/svg"
 width="700.000000pt" height="700.000000pt" viewBox="0 0 700.000000 700.000000"
 preserveAspectRatio="xMidYMid meet">
<metadata>
Created by potrace 1.11, written by Peter Selinger 2001-2013
</metadata>
<g transform="translate(0.000000,700.000000) scale(0.100000,-0.100000)"
fill="#000000" stroke="none">
<path d="M0 4640 c0 -2165 1 -2359 16 -2353 9 3 64 32 123 63 58 31 153 82
211 112 58 31 206 109 330 175 124 66 232 122 240 126 8 4 35 19 60 33 25 14
106 57 180 96 74 39 168 88 208 109 209 112 228 122 707 376 176 94 374 198
440 233 66 34 134 70 150 80 17 10 89 48 160 85 72 38 155 82 185 98 30 16 98
52 150 79 52 28 118 63 145 78 28 15 102 54 165 87 99 52 266 140 680 360 255
136 393 269 442 428 5 17 11 75 13 130 7 161 -31 312 -104 419 -51 74 -152
164 -240 215 -34 19 -178 80 -204 86 -12 3 -60 14 -107 25 -47 10 -103 23
-125 27 -22 4 -599 8 -1282 10 l-1242 4 0 -746 0 -746 117 62 c64 34 149 79
187 99 77 42 192 103 330 175 50 26 92 49 94 51 2 2 3 100 3 218 -1 159 2 215
11 218 7 3 404 4 882 3 782 -1 874 -3 908 -18 61 -26 57 -31 -93 -109 -58 -31
-139 -73 -180 -95 -204 -108 -287 -152 -420 -223 -80 -42 -190 -101 -245 -130
-55 -29 -122 -65 -150 -80 -27 -15 -108 -58 -180 -95 -71 -37 -152 -80 -180
-95 -93 -51 -190 -102 -300 -160 -158 -83 -342 -180 -515 -273 -41 -22 -113
-60 -160 -85 -47 -24 -116 -61 -155 -82 -38 -21 -124 -66 -190 -100 -66 -35
-160 -85 -208 -111 -49 -27 -97 -51 -108 -54 -19 -6 -19 14 -19 1443 l0 1449
1603 -2 c881 -1 1611 -4 1622 -7 11 -3 42 -9 68 -12 232 -34 484 -134 652
-259 149 -110 291 -282 358 -433 15 -34 27 -65 27 -68 0 -4 9 -27 20 -51 27
-60 78 -261 87 -343 26 -245 -12 -455 -124 -677 -42 -84 -89 -151 -161 -226
l-53 -57 77 -118 c42 -66 128 -197 191 -292 l114 -172 42 34 c55 45 176 178
243 267 176 231 307 528 349 789 3 19 7 46 10 60 22 121 26 361 8 510 -17 143
-19 155 -38 235 -9 39 -18 77 -20 85 -24 112 -119 307 -236 481 -295 441 -747
747 -1282 869 -216 49 -164 48 -2289 49 l-1998 1 0 -2360z"/>
<path d="M4320 3864 c-456 -241 -521 -275 -885 -464 -297 -154 -414 -215 -520
-270 -264 -138 -328 -171 -470 -245 -82 -43 -204 -106 -270 -140 -66 -34 -183
-95 -260 -135 -77 -40 -180 -94 -230 -120 -49 -26 -166 -87 -260 -135 -93 -48
-201 -104 -240 -125 -38 -21 -135 -71 -215 -112 -80 -42 -215 -112 -300 -156
-305 -159 -486 -253 -577 -300 l-93 -47 0 -806 0 -805 3495 0 c1922 1 3495 4
3495 9 0 7 -125 200 -462 712 -68 105 -203 309 -298 455 -95 146 -247 377
-337 513 -89 137 -163 250 -163 253 0 3 -5 10 -11 17 -10 12 -85 125 -289 437
-52 80 -150 231 -219 335 -409 625 -464 709 -687 1063 -42 67 -82 122 -88 122
-6 0 -58 -26 -116 -56z m-37 -1012 c57 -86 125 -191 152 -232 27 -41 84 -128
127 -193 43 -65 78 -122 78 -126 0 -5 -55 -36 -122 -71 -67 -34 -168 -86 -223
-115 -260 -136 -357 -186 -445 -230 -52 -27 -108 -58 -125 -69 -16 -12 -32
-20 -35 -19 -3 1 -54 -24 -115 -56 -103 -55 -176 -93 -520 -271 -77 -40 -192
-100 -255 -133 -63 -33 -162 -84 -220 -114 l-105 -53 737 0 737 0 63 33 c35
19 135 71 223 117 88 45 214 111 280 145 66 34 188 97 270 140 83 43 169 88
192 101 l42 23 149 -227 c82 -125 205 -312 273 -417 68 -104 156 -239 196
-300 40 -60 70 -111 68 -113 -3 -3 -4880 -5 -4957 -3 -16 1 -17 24 -15 282 l2
280 110 58 c61 32 191 100 290 151 99 51 225 116 280 145 55 29 163 85 240
125 77 40 176 92 220 115 44 23 148 77 230 120 83 43 204 106 270 140 66 34
188 97 270 140 83 43 195 101 250 130 141 74 326 170 490 255 77 40 185 96
240 125 55 29 177 92 270 141 94 48 192 100 220 115 27 15 53 25 57 23 4 -3
54 -76 111 -162z"/>
</g>
</svg>
